<svg width="32" height="32" viewBox="0 0 32 32" fill="none" xmlns="http://www.w3.org/2000/svg">
<g clip-path="url(#clip0_2186_6304)">
<path d="M31 15.5C31 17.4042 30.612 19.2897 29.8582 21.0489C29.1044 22.8081 27.9995 24.4066 26.6066 25.753C25.2137 27.0995 23.5601 28.1676 21.7403 28.8963C19.9204 29.6249 17.9698 30 16 30C14.0302 30 12.0796 29.6249 10.2597 28.8963C8.43986 28.1676 6.78628 27.0995 5.3934 25.753C4.00052 24.4066 2.89563 22.8081 2.14181 21.0489C1.38799 19.2897 1 17.4042 1 15.5C1 11.6544 2.58035 7.96623 5.3934 5.24695C8.20644 2.52767 12.0218 1 16 1C19.9782 1 23.7936 2.52767 26.6066 5.24695C29.4196 7.96623 31 11.6544 31 15.5Z" stroke="#FAFAF8" stroke-width="2.5" stroke-linecap="round" stroke-linejoin="round"/>
<path d="M11.6683 21.25C12.5333 22.2965 14.15 23 16 23C18.7617 23 21 21.4338 21 19.5C21 17.5662 18.7617 16 16 16C13.2383 16 11 14.4338 11 12.5C11 10.5662 13.2383 9 16 9C17.85 9 19.4667 9.7035 20.3317 10.75" stroke="#FAFAF8" stroke-width="2.5" stroke-linecap="round" stroke-linejoin="round"/>
<path d="M16 8V24" stroke="#FAFAF8" stroke-width="2.5" stroke-linecap="round" stroke-linejoin="round"/>
</g>
<defs>
<clipPath id="clip0_2186_6304">
<rect width="32" height="32" fill="white"/>
</clipPath>
</defs>
</svg>
