<svg preserveAspectRatio="none" overflow="visible" style="display: block;" width="24" height="24" viewBox="0 0 24 24" fill="none" xmlns="http://www.w3.org/2000/svg">
<g id="Frame">
<path id="Vector" fill-rule="evenodd" clip-rule="evenodd" d="M19.0711 19.0711C22.9763 15.1658 22.9763 8.8342 19.0711 4.92893C15.1658 1.02369 8.8342 1.02369 4.92893 4.92893C1.02369 8.8342 1.02369 15.1658 4.92893 19.0711C8.8342 22.9763 15.1658 22.9763 19.0711 19.0711ZM16.2426 7.75735C18.5858 10.1005 18.5858 13.8995 16.2426 16.2426C13.8995 18.5858 10.1005 18.5858 7.75735 16.2426C5.4142 13.8995 5.4142 10.1005 7.75735 7.75735C10.1005 5.4142 13.8995 5.4142 16.2426 7.75735Z" stroke="#555555" stroke-linecap="round" stroke-linejoin="round"/>
<path id="Vector_2" d="M19.071 19.0711L16.2425 16.2426" stroke="#555555" stroke-linecap="round" stroke-linejoin="round"/>
<path id="Vector_3" d="M4.92896 19.0711L7.7574 16.2426" stroke="#555555" stroke-linecap="round" stroke-linejoin="round"/>
<path id="Vector_4" d="M4.92896 4.92896L7.7574 7.7574" stroke="#555555" stroke-linecap="round" stroke-linejoin="round"/>
<path id="Vector_5" d="M19.071 4.92896L16.2425 7.7574" stroke="#555555" stroke-linecap="round" stroke-linejoin="round"/>
<path id="Vector_6" d="M16.2426 16.2426C18.5858 13.8995 18.5858 10.1005 16.2426 7.75735C13.8995 5.4142 10.1005 5.4142 7.75735 7.75735C5.4142 10.1005 5.4142 13.8995 7.75735 16.2426C10.1005 18.5858 13.8995 18.5858 16.2426 16.2426Z" stroke="#555555" stroke-linecap="round" stroke-linejoin="round"/>
</g>
</svg>
